# xmcd
#
# Track frame offsets:
#	150
#	9125
#	26688
#	46715
#	62943
#	82075
#	104130
#	133014
#	148554
#	171838
#	198065
#	215850
#	236462
#	290804
#	314537
#
# Disc length: 4234 seconds
#
# Revision: 1
# Processed by: cddbd v1.5.2PL0 Copyright (c) Steve Scherf et al.
# Submitted via: audiograbber 1.83.01
#
DISCID=df10880f
DTITLE=NRPS - 72-04-13 Manley Fieldhouse, Lemonyne College, Syracuse NY
DYEAR=1900
DGENRE=
TTITLE0=Tuning and Intro
TTITLE1=I Don't Know You
TTITLE2=Running Back To You
TTITLE3=Contract
TTITLE4=Henry
TTITLE5=Dim Lights
TTITLE6=Portland Woman
TTITLE7=Hello Mary Lou
TTITLE8=Linda
TTITLE9=Duncan and Brady
TTITLE10=Louisiana Lady
TTITLE11=Whatcha Gonna Do
TTITLE12=Willie and The Hand Jive
TTITLE13=Honky Tonk Women
TTITLE14=Outtro
EXTD=
EXTT0=
EXTT1=
EXTT2=
EXTT3=
EXTT4=
EXTT5=
EXTT6=
EXTT7=
EXTT8=
EXTT9=
EXTT10=
EXTT11=
EXTT12=
EXTT13=
EXTT14=
PLAYORDER=
